<svg width="800" height="800" viewBox="0 0 800 800" fill="none" xmlns="http://www.w3.org/2000/svg">
<mask id="mask0_9_30" style="mask-type:alpha" maskUnits="userSpaceOnUse" x="-1" y="56" width="803" height="688">
<path d="M375.716 232.004L212.216 557.004H78.2164L80.7089 552.287C159.015 404.093 312.093 114.398 319.216 104.504C328.216 92.0037 346.216 57.5037 400.216 57.0037C443.416 56.6037 470.883 88.5037 479.216 104.504L719.716 557.004H586.216C532.716 457.337 426.016 237.604 423.216 232.004C419.716 225.004 411.716 213.004 398.716 213.004C388.316 213.004 379.05 225.67 375.716 232.004Z" fill="#D9D9D9" stroke="black"/>
<path d="M202.716 576.004H68.2164C48.5498 608.67 9.02338 681.57 1.7164 703.004C-5.78361 725.004 13.2164 739.504 21.7164 741.504C35.2164 744.004 86.5889 742.004 98.2164 742.004C109.716 742.004 121.216 732.504 127.216 722.004L202.716 576.004Z" fill="white" stroke="black"/>
<path d="M595.216 575.504H731.043C750.904 608.17 790.82 681.07 798.199 702.504C805.773 724.504 798.199 740 778.002 741.004C764.369 743.504 712.49 741.504 700.747 741.504C689.134 741.504 677.52 732.004 671.461 721.504L595.216 575.504Z" fill="white" stroke="black"/>
<rect x="261.216" y="537.004" width="24" height="62" rx="12" fill="#D9D9D9"/>
<path d="M221.216 567.504C221.216 563.085 224.798 559.504 229.216 559.504H261.216V577.504H229.216C224.798 577.504 221.216 573.922 221.216 569.504V567.504Z" fill="#D9D9D9"/>
<rect x="303.05" y="510.504" width="24" height="115" rx="12" fill="#D9D9D9"/>
<rect x="344.883" y="482.504" width="23" height="171" rx="11.5" fill="#D9D9D9"/>
<rect x="385.716" y="448.004" width="24" height="240" rx="12" fill="#D9D9D9"/>
<rect x="427.55" y="482.504" width="23" height="171" rx="11.5" fill="#D9D9D9"/>
<rect x="468.383" y="510.504" width="24" height="115" rx="12" fill="#D9D9D9"/>
<path d="M574.216 567.004C574.216 562.585 570.635 559.004 566.216 559.004H534.216V577.004H566.216C570.635 577.004 574.216 573.422 574.216 569.004V567.004Z" fill="#D9D9D9"/>
<rect width="24" height="62" rx="12" transform="matrix(-1 0 0 1 534.216 537.004)" fill="#D9D9D9"/>
</mask>
<g mask="url(#mask0_9_30)">
<rect x="1.52588e-05" width="800" height="800" fill="url(#paint0_linear_9_30)"/>
</g>
<defs>
<linearGradient id="paint0_linear_9_30" x1="800" y1="400" x2="1.52588e-05" y2="400" gradientUnits="userSpaceOnUse">
<stop stop-color="#6155F5"/>
<stop offset="1" stop-color="#00FFFF"/>
</linearGradient>
</defs>
</svg>
